<?xml version="1.0" encoding="UTF-8" standalone="no"?>
<!-- Created with Inkscape (http://www.inkscape.org/) -->

<svg
   width="39.205006mm"
   height="26.618187mm"
   viewBox="0 0 39.205006 26.618187"
   version="1.1"
   id="svg5"
   inkscape:version="1.2.2 (b0a8486541, 2022-12-01)"
   sodipodi:docname="diagram.svg"
   xmlns:inkscape="http://www.inkscape.org/namespaces/inkscape"
   xmlns:sodipodi="http://sodipodi.sourceforge.net/DTD/sodipodi-0.dtd"
   xmlns="http://www.w3.org/2000/svg"
   xmlns:svg="http://www.w3.org/2000/svg">
  <sodipodi:namedview
     id="namedview7"
     pagecolor="#ffffff"
     bordercolor="#000000"
     borderopacity="0.25"
     inkscape:showpageshadow="2"
     inkscape:pageopacity="0.0"
     inkscape:pagecheckerboard="0"
     inkscape:deskcolor="#d1d1d1"
     inkscape:document-units="mm"
     showgrid="true"
     inkscape:lockguides="true"
     inkscape:zoom="7.319248"
     inkscape:cx="69.064472"
     inkscape:cy="55.128614"
     inkscape:window-width="3840"
     inkscape:window-height="2057"
     inkscape:window-x="3840"
     inkscape:window-y="0"
     inkscape:window-maximized="1"
     inkscape:current-layer="g29872"
     showguides="true">
    <inkscape:grid
       type="xygrid"
       id="grid1004"
       spacingx="2.6458333"
       spacingy="2.6458333"
       originx="6.7459171"
       originy="-3.9161583" />
    <sodipodi:guide
       position="-1.1386928,28.953257"
       orientation="1,0"
       id="guide40430"
       inkscape:locked="true" />
  </sodipodi:namedview>
  <defs
     id="defs2">
    <marker
       style="overflow:visible"
       id="Arrow2"
       refX="6"
       refY="0"
       orient="auto-start-reverse"
       inkscape:stockid="Arrow2"
       markerWidth="7.6999998"
       markerHeight="5.5999999"
       viewBox="0 0 7.7 5.6"
       inkscape:isstock="true"
       inkscape:collect="always"
       preserveAspectRatio="xMidYMid">
      <path
         transform="scale(0.7)"
         d="M -2,-4 9,0 -2,4 c 2,-2.33 2,-5.66 0,-8 z"
         style="fill:context-stroke;fill-rule:evenodd;stroke:none"
         id="arrow2L" />
    </marker>
    <marker
       style="overflow:visible"
       id="Arrow2-3"
       refX="6"
       refY="0"
       orient="auto-start-reverse"
       inkscape:stockid="Arrow2"
       markerWidth="7.6999998"
       markerHeight="5.5999999"
       viewBox="0 0 7.7 5.6"
       inkscape:isstock="true"
       inkscape:collect="always"
       preserveAspectRatio="xMidYMid">
      <path
         transform="scale(0.7)"
         d="M -2,-4 9,0 -2,4 c 2,-2.33 2,-5.66 0,-8 z"
         style="fill:context-stroke;fill-rule:evenodd;stroke:none"
         id="arrow2L-5" />
    </marker>
    <marker
       style="overflow:visible"
       id="Arrow2-2"
       refX="6"
       refY="0"
       orient="auto-start-reverse"
       inkscape:stockid="Arrow2"
       markerWidth="7.6999998"
       markerHeight="5.5999999"
       viewBox="0 0 7.7 5.6"
       inkscape:isstock="true"
       inkscape:collect="always"
       preserveAspectRatio="xMidYMid">
      <path
         transform="scale(0.7)"
         d="M -2,-4 9,0 -2,4 c 2,-2.33 2,-5.66 0,-8 z"
         style="fill:context-stroke;fill-rule:evenodd;stroke:none"
         id="arrow2L-9" />
    </marker>
    <marker
       style="overflow:visible"
       id="Arrow2-2-2"
       refX="6"
       refY="0"
       orient="auto-start-reverse"
       inkscape:stockid="Arrow2"
       markerWidth="7.6999998"
       markerHeight="5.5999999"
       viewBox="0 0 7.7 5.6"
       inkscape:isstock="true"
       inkscape:collect="always"
       preserveAspectRatio="xMidYMid">
      <path
         transform="scale(0.7)"
         d="M -2,-4 9,0 -2,4 c 2,-2.33 2,-5.66 0,-8 z"
         style="fill:context-stroke;fill-rule:evenodd;stroke:none"
         id="arrow2L-9-7" />
    </marker>
    <clipPath
       id="clipPath2350">
      <path
         d="m 12,0 h 3 v 9.964844 h -3 z m 0,0"
         id="path3410" />
    </clipPath>
    <clipPath
       id="clipPath165">
      <path
         d="M 0,0 H 2 V 7.96875 H 0 Z m 0,0"
         id="path1343" />
    </clipPath>
    <clipPath
       id="clipPath2746">
      <path
         d="m 8,3 h 4 V 7.96875 H 8 Z m 0,0"
         id="path3556" />
    </clipPath>
    <clipPath
       id="clipPath1757">
      <path
         d="m 13,0 h 2.996094 V 7.96875 H 13 Z m 0,0"
         id="path178" />
    </clipPath>
    <clipPath
       id="clipPath4295">
      <path
         d="M 0,0 H 2 V 7.96875 H 0 Z m 0,0"
         id="path9890" />
    </clipPath>
    <clipPath
       id="clipPath1536">
      <path
         d="m 9,3 h 4 V 7.96875 H 9 Z m 0,0"
         id="path49" />
    </clipPath>
    <clipPath
       id="clipPath354">
      <path
         d="m 14,0 h 2 v 7.96875 h -2 z m 0,0"
         id="path9624" />
    </clipPath>
    <clipPath
       id="clipPath6582">
      <path
         d="M 0,0 H 2 V 7.96875 H 0 Z m 0,0"
         id="path2332" />
    </clipPath>
    <clipPath
       id="clipPath8372">
      <path
         d="m 8,3 h 6 V 7.96875 H 8 Z m 0,0"
         id="path2629" />
    </clipPath>
    <clipPath
       id="clipPath5284">
      <path
         d="m 19,0 h 3 v 7.96875 h -3 z m 0,0"
         id="path4851" />
    </clipPath>
    <clipPath
       id="clipPath5830">
      <path
         d="m 13,5 h 3 v 3.46875 h -3 z m 0,0"
         id="path4696" />
    </clipPath>
    <clipPath
       id="clipPath5830-9">
      <path
         d="m 13,5 h 3 v 3.46875 h -3 z m 0,0"
         id="path4696-3" />
    </clipPath>
    <clipPath
       id="clipPath703">
      <path
         d="m 13,5 h 4 v 3.46875 h -4 z m 0,0"
         id="path1676" />
    </clipPath>
  </defs>
  <g
     inkscape:label="Layer 1"
     inkscape:groupmode="layer"
     id="layer1"
     transform="translate(6.7459173,-3.91616)">
    <path
       style="fill:#000000;stroke:#000000;stroke-width:0.351017;stroke-opacity:1"
       d="M 7.9374999,5.2916666 H 23.8125"
       id="path9732"
       sodipodi:nodetypes="cc" />
    <path
       style="fill:#000000;stroke:#000000;stroke-width:0.351017;stroke-opacity:1"
       d="M 7.9374999,10.583333 H 23.8125"
       id="path9732-6"
       sodipodi:nodetypes="cc" />
    <path
       style="fill:#000000;stroke:#000000;stroke-width:0.351017;stroke-opacity:1"
       d="M 7.9374999,29.104166 H 23.8125"
       id="path9732-6-7"
       sodipodi:nodetypes="cc" />
    <path
       style="fill:#000000;stroke:#000000;stroke-width:0.351017;stroke-opacity:1"
       d="M 7.9374999,21.166666 H 23.8125"
       id="path9732-6-7-5"
       sodipodi:nodetypes="cc" />
    <path
       style="fill:#000000;stroke:#fe0000;stroke-width:0.351;stroke-dasharray:none;stroke-opacity:1;marker-end:url(#Arrow2)"
       d="M 10.583333,29.104166 V 10.583333"
       id="path9845" />
    <path
       style="fill:#000000;stroke:#009600;stroke-width:0.351;stroke-dasharray:none;stroke-opacity:1;marker-end:url(#Arrow2-2)"
       d="M 18.520833,21.166666 V 10.583333"
       id="path9845-1"
       sodipodi:nodetypes="cc" />
    <path
       style="fill:#000000;stroke:#ff00ff;stroke-width:0.351;stroke-dasharray:none;stroke-opacity:1;marker-end:url(#Arrow2-2-2)"
       d="M 21.166666,21.166666 V 5.2916666"
       id="path9845-1-0"
       sodipodi:nodetypes="cc" />
    <path
       style="fill:#000000;stroke:#0000ff;stroke-width:0.351;stroke-dasharray:none;stroke-opacity:1;marker-end:url(#Arrow2-3)"
       d="m 13.229167,29.104166 -1e-6,-23.8124994"
       id="path9845-6"
       sodipodi:nodetypes="cc" />
    <g
       inkscape:label=""
       transform="translate(25.2512,27.0151)"
       id="g29872">
      <g
         inkscape:label=""
         transform="translate(0.27266843,0.71355991)"
         id="g30773">
        <g
           id="surface1"
           transform="matrix(0.352778,0,0,0.352778,-0.347266,-0.0029105)">
          <g
             clip-path="url(#clipPath165)"
             clip-rule="nonzero"
             id="g40">
            <g
               style="fill:#000000;fill-opacity:1"
               id="g38">
              <g
                 id="use36"
                 transform="translate(0,5.9770002)">
                <path
                   style="stroke:none"
                   d="m 1.359375,-5.671875 c 0,-0.125 0,-0.296875 -0.1875,-0.296875 -0.1875,0 -0.1875,0.171875 -0.1875,0.296875 V 1.6875 c 0,0.125 0,0.296875 0.1875,0.296875 0.1875,0 0.1875,-0.171875 0.1875,-0.296875 z m 0,0"
                   id="path63" />
              </g>
            </g>
          </g>
          <g
             style="fill:#000000;fill-opacity:1"
             id="g44">
            <g
               id="use42"
               transform="translate(2.352,5.9770002)">
              <path
                 style="stroke:none"
                 d="M 3.359375,-1.078125 C 4.84375,-1.21875 5.640625,-2 5.640625,-2.71875 c 0,-0.75 -0.828125,-1.515625 -2.28125,-1.640625 v -0.4375 c 0,-0.265625 0,-0.375 0.75,-0.375 h 0.25 V -5.4375 c -0.34375,0.015625 -0.953125,0.015625 -1.328125,0.015625 -0.390625,0 -0.984375,0 -1.34375,-0.015625 v 0.265625 h 0.25 c 0.75,0 0.75,0.109375 0.75,0.375 v 0.453125 c -1.328125,0.109375 -2.21875,0.84375 -2.21875,1.625 0,0.8125 0.921875,1.5 2.21875,1.625 v 0.4375 c 0,0.28125 0,0.390625 -0.75,0.390625 h -0.25 V 0 c 0.359375,-0.03125 0.953125,-0.03125 1.328125,-0.03125 0.390625,0 1,0 1.34375,0.03125 v -0.265625 h -0.25 c -0.75,0 -0.75,-0.109375 -0.75,-0.390625 z M 2.6875,-1.3125 C 1.984375,-1.390625 1.28125,-1.71875 1.28125,-2.71875 c 0,-0.890625 0.5625,-1.3125 1.40625,-1.40625 z M 3.359375,-4.125 c 0.703125,0.046875 1.46875,0.375 1.46875,1.40625 0,1.015625 -0.734375,1.34375 -1.46875,1.40625 z m 0,0"
                 id="path67" />
            </g>
          </g>
          <g
             clip-path="url(#clipPath2746)"
             clip-rule="nonzero"
             id="g50">
            <g
               style="fill:#000000;fill-opacity:1"
               id="g48">
              <g
                 id="use46"
                 transform="translate(8.4680004,7.3169999)">
                <path
                   style="stroke:none"
                   d="m 2.59375,-3.59375 c 0.046875,-0.203125 0.0625,-0.25 0.53125,-0.25 0.15625,0 0.234375,0 0.234375,-0.140625 0,-0.0625 -0.046875,-0.109375 -0.109375,-0.109375 -0.125,0 -0.265625,0.03125 -0.390625,0.03125 -0.171875,0 -0.328125,0 -0.4375,0 0,0 -0.453125,0 -0.453125,0 -0.125,0 -0.28125,-0.03125 -0.40625,-0.03125 -0.03125,0 -0.125,0 -0.125,0.15625 0,0.09375 0.078125,0.09375 0.203125,0.09375 0.015625,0 0.125,0 0.25,0 0.140625,0.015625 0.15625,0.03125 0.15625,0.09375 0,0 0,0.046875 -0.03125,0.125 l -0.78125,3.140625 c -0.046875,0.1875 -0.0625,0.25 -0.53125,0.25 -0.140625,0 -0.15625,0 -0.171875,0 -0.046875,0.03125 -0.0625,0.109375 -0.0625,0.15625 C 0.46875,-0.0625 0.484375,0 0.578125,0 c 0.125,0 0.265625,-0.015625 0.390625,-0.015625 0.296875,0 0.21875,-0.015625 0.4375,-0.015625 0.140625,0 0.296875,0.015625 0.4375,0.015625 C 1.984375,-0.015625 2.125,0 2.25,0 2.296875,0 2.328125,0 2.359375,-0.03125 2.375,-0.0625 2.40625,-0.140625 2.40625,-0.15625 2.375,-0.234375 2.328125,-0.234375 2.1875,-0.234375 c 0,0 -0.140625,0 -0.25,-0.015625 -0.09375,-0.015625 -0.140625,-0.015625 -0.140625,-0.078125 0,-0.03125 0,-0.046875 0,-0.09375 z m 0,0"
                   id="path71" />
              </g>
            </g>
          </g>
          <g
             clip-path="url(#clipPath1757)"
             clip-rule="nonzero"
             id="g56">
            <g
               style="fill:#000000;fill-opacity:1"
               id="g54">
              <g
                 id="use52"
                 transform="translate(12.702,5.9770002)">
                <path
                   style="stroke:none"
                   d="M 2.296875,-1.84375 C 2.34375,-1.9375 2.34375,-1.953125 2.34375,-1.984375 c 0,-0.046875 0,-0.0625 -0.046875,-0.15625 L 0.859375,-5.78125 C 0.8125,-5.90625 0.75,-5.96875 0.65625,-5.96875 c -0.109375,0 -0.1875,0.078125 -0.1875,0.171875 0,0.03125 0,0.046875 0.046875,0.15625 L 1.96875,-1.984375 0.515625,1.65625 C 0.46875,1.765625 0.46875,1.78125 0.46875,1.8125 c 0,0.09375 0.078125,0.171875 0.1875,0.171875 0.109375,0 0.15625,-0.078125 0.1875,-0.171875 z m 0,0"
                   id="path75" />
              </g>
            </g>
          </g>
        </g>
      </g>
      <g
         inkscape:label=""
         transform="translate(0.27266843,-7.2239401)"
         id="g31730">
        <g
           id="g31728"
           transform="matrix(0.352778,0,0,0.352778,-0.347266,-0.0029105)">
          <g
             clip-path="url(#clipPath4295)"
             clip-rule="nonzero"
             id="g31704">
            <g
               style="fill:#000000;fill-opacity:1"
               id="g31702">
              <g
                 id="g31700"
                 transform="translate(0,5.9770002)">
                <path
                   style="stroke:none"
                   d="m 1.359375,-5.671875 c 0,-0.125 0,-0.296875 -0.1875,-0.296875 -0.1875,0 -0.1875,0.171875 -0.1875,0.296875 V 1.6875 c 0,0.125 0,0.296875 0.1875,0.296875 0.1875,0 0.1875,-0.171875 0.1875,-0.296875 z m 0,0"
                   id="path31698" />
              </g>
            </g>
          </g>
          <g
             style="fill:#000000;fill-opacity:1"
             id="g31710">
            <g
               id="g31708"
               transform="translate(2.352,5.9770002)">
              <path
                 style="stroke:none"
                 d="M 3.359375,-1.078125 C 4.84375,-1.21875 5.640625,-2 5.640625,-2.71875 c 0,-0.75 -0.828125,-1.515625 -2.28125,-1.640625 v -0.4375 c 0,-0.265625 0,-0.375 0.75,-0.375 h 0.25 V -5.4375 c -0.34375,0.015625 -0.953125,0.015625 -1.328125,0.015625 -0.390625,0 -0.984375,0 -1.34375,-0.015625 v 0.265625 h 0.25 c 0.75,0 0.75,0.109375 0.75,0.375 v 0.453125 c -1.328125,0.109375 -2.21875,0.84375 -2.21875,1.625 0,0.8125 0.921875,1.5 2.21875,1.625 v 0.4375 c 0,0.28125 0,0.390625 -0.75,0.390625 h -0.25 V 0 c 0.359375,-0.03125 0.953125,-0.03125 1.328125,-0.03125 0.390625,0 1,0 1.34375,0.03125 v -0.265625 h -0.25 c -0.75,0 -0.75,-0.109375 -0.75,-0.390625 z M 2.6875,-1.3125 C 1.984375,-1.390625 1.28125,-1.71875 1.28125,-2.71875 c 0,-0.890625 0.5625,-1.3125 1.40625,-1.40625 z M 3.359375,-4.125 c 0.703125,0.046875 1.46875,0.375 1.46875,1.40625 0,1.015625 -0.734375,1.34375 -1.46875,1.40625 z m 0,0"
                 id="path31706" />
            </g>
          </g>
          <g
             clip-path="url(#clipPath1536)"
             clip-rule="nonzero"
             id="g31718">
            <g
               style="fill:#000000;fill-opacity:1"
               id="g31716">
              <g
                 id="g31714"
                 transform="translate(8.4680004,7.3169999)">
                <path
                   style="stroke:none"
                   d="m 3.78125,-3.625 c 0.0625,-0.1875 0.0625,-0.21875 0.390625,-0.21875 0.09375,0 0.171875,0 0.171875,-0.15625 0,-0.046875 -0.03125,-0.09375 -0.078125,-0.09375 -0.109375,0 -0.234375,0.03125 -0.34375,0.03125 -0.109375,0 -0.234375,0 -0.34375,0 -0.15625,0 -0.34375,0 -0.5,0 C 2.9375,-4.078125 2.765625,-4.09375 2.625,-4.09375 c -0.046875,0 -0.078125,0 -0.109375,0.046875 C 2.5,-4.03125 2.484375,-3.953125 2.484375,-3.9375 c 0.015625,0.09375 0.0625,0.09375 0.21875,0.09375 0.140625,0 0.1875,0 0.34375,0 0.125,0.015625 0.203125,0.03125 0.203125,0.109375 0,0.03125 -0.015625,0.0625 -0.03125,0.109375 L 2.546875,-0.890625 C 2.421875,-0.40625 2,-0.078125 1.625,-0.078125 c -0.078125,0 -0.453125,0 -0.609375,-0.265625 C 1.359375,-0.375 1.40625,-0.65625 1.40625,-0.75 c 0,-0.140625 -0.09375,-0.265625 -0.28125,-0.265625 -0.234375,0 -0.40625,0.1875 -0.40625,0.484375 0,0.375 0.359375,0.65625 0.921875,0.65625 0.640625,0 1.3125,-0.40625 1.453125,-0.96875 z m 0,0"
                   id="path31712" />
              </g>
            </g>
          </g>
          <g
             clip-path="url(#clipPath354)"
             clip-rule="nonzero"
             id="g31726">
            <g
               style="fill:#000000;fill-opacity:1"
               id="g31724">
              <g
                 id="g31722"
                 transform="translate(13.606,5.9770002)">
                <path
                   style="stroke:none"
                   d="M 2.296875,-1.84375 C 2.34375,-1.9375 2.34375,-1.953125 2.34375,-1.984375 c 0,-0.046875 0,-0.0625 -0.046875,-0.15625 L 0.859375,-5.78125 C 0.8125,-5.90625 0.75,-5.96875 0.65625,-5.96875 c -0.109375,0 -0.1875,0.078125 -0.1875,0.171875 0,0.03125 0,0.046875 0.046875,0.15625 L 1.96875,-1.984375 0.515625,1.65625 C 0.46875,1.765625 0.46875,1.78125 0.46875,1.8125 c 0,0.09375 0.078125,0.171875 0.1875,0.171875 0.109375,0 0.15625,-0.078125 0.1875,-0.171875 z m 0,0"
                   id="path31720" />
              </g>
            </g>
          </g>
        </g>
      </g>
      <g
         inkscape:label=""
         transform="translate(0.55930056,-17.807274)"
         id="g34501">
        <g
           id="g34499"
           transform="matrix(0.352778,0,0,0.352778,-0.347266,-0.0029105)">
          <g
             style="fill:#000000;fill-opacity:1"
             id="g34479">
            <g
               id="g34477"
               transform="translate(0,5.9770002)">
              <path
                 style="stroke:none"
                 d="m 1.359375,-5.671875 c 0,-0.125 0,-0.296875 -0.1875,-0.296875 -0.1875,0 -0.1875,0.171875 -0.1875,0.296875 V 1.6875 c 0,0.125 0,0.296875 0.1875,0.296875 0.1875,0 0.1875,-0.171875 0.1875,-0.296875 z m 0,0"
                 id="path34475" />
            </g>
          </g>
          <g
             style="fill:#000000;fill-opacity:1"
             id="g42">
            <g
               id="use40"
               transform="translate(2.352,5.9770002)">
              <path
                 style="stroke:none"
                 d="M 3.359375,-1.078125 C 4.84375,-1.21875 5.640625,-2 5.640625,-2.71875 c 0,-0.75 -0.828125,-1.515625 -2.28125,-1.640625 v -0.4375 c 0,-0.265625 0,-0.375 0.75,-0.375 h 0.25 V -5.4375 c -0.34375,0.015625 -0.953125,0.015625 -1.328125,0.015625 -0.390625,0 -0.984375,0 -1.34375,-0.015625 v 0.265625 h 0.25 c 0.75,0 0.75,0.109375 0.75,0.375 v 0.453125 c -1.328125,0.109375 -2.21875,0.84375 -2.21875,1.625 0,0.8125 0.921875,1.5 2.21875,1.625 v 0.4375 c 0,0.28125 0,0.390625 -0.75,0.390625 h -0.25 V 0 c 0.359375,-0.03125 0.953125,-0.03125 1.328125,-0.03125 0.390625,0 1,0 1.34375,0.03125 v -0.265625 h -0.25 c -0.75,0 -0.75,-0.109375 -0.75,-0.390625 z M 2.6875,-1.3125 C 1.984375,-1.390625 1.28125,-1.71875 1.28125,-2.71875 c 0,-0.890625 0.5625,-1.3125 1.40625,-1.40625 z M 3.359375,-4.125 c 0.703125,0.046875 1.46875,0.375 1.46875,1.40625 0,1.015625 -0.734375,1.34375 -1.46875,1.40625 z m 0,0"
                 id="path34481" />
            </g>
          </g>
          <g
             style="fill:#000000;fill-opacity:1"
             id="g46">
            <g
               id="use44"
               transform="translate(8.4680004,7.3169999)">
              <path
                 style="stroke:none"
                 d="m 2.171875,-1.921875 h 0.6875 c 0.484375,0 0.5625,0.078125 0.5625,0.28125 0,0.078125 -0.03125,0.265625 -0.0625,0.34375 0,0 0.015625,0.078125 0.125,0.078125 0.078125,0 0.09375,-0.03125 0.109375,-0.125 l 0.359375,-1.421875 c 0,-0.015625 -0.015625,-0.09375 -0.109375,-0.09375 -0.09375,0 -0.109375,0.046875 -0.125,0.125 -0.125,0.46875 -0.265625,0.578125 -0.828125,0.578125 H 2.25 L 2.609375,-3.625 c 0.046875,-0.1875 0.046875,-0.203125 0.3125,-0.203125 h 0.96875 c 0.796875,0 1,0.15625 1,0.703125 0,0.140625 -0.015625,0.34375 -0.015625,0.359375 0,0.109375 0.078125,0.109375 0.109375,0.109375 0.09375,0 0.109375,-0.046875 0.109375,-0.15625 L 5.203125,-3.875 C 5.21875,-4.0625 5.171875,-4.0625 5.03125,-4.0625 h -3.375 c -0.109375,0 -0.203125,0 -0.203125,0.15625 0,0.078125 0.09375,0.078125 0.203125,0.078125 0.109375,0 0.265625,0 0.390625,0.046875 0,0.0625 0,0.09375 -0.03125,0.1875 L 1.234375,-0.5 c -0.046875,0.21875 -0.0625,0.265625 -0.515625,0.265625 -0.125,0 -0.140625,0 -0.15625,0.015625 C 0.53125,-0.203125 0.5,-0.125 0.5,-0.078125 0.515625,-0.0625 0.515625,0 0.609375,0 c 0.125,0 0.265625,-0.015625 0.40625,-0.015625 0.140625,0 0.28125,-0.015625 0.421875,-0.015625 0.15625,0 0.328125,0.015625 0.5,0.015625 C 2.078125,-0.015625 2.25,0 2.390625,0 2.421875,0 2.53125,0 2.53125,-0.15625 c 0,-0.078125 -0.078125,-0.078125 -0.21875,-0.078125 -0.015625,0 -0.171875,0 -0.3125,-0.015625 -0.1875,-0.015625 -0.203125,-0.03125 -0.203125,-0.09375 0,-0.015625 0,-0.046875 0.015625,-0.125 z m 0,0"
                 id="path34485" />
            </g>
          </g>
          <g
             clip-path="url(#clipPath5830)"
             clip-rule="nonzero"
             id="g52">
            <g
               style="fill:#000000;fill-opacity:1"
               id="g34492">
              <g
                 id="use48"
                 transform="translate(13.101,8.4680004)">
                <path
                   style="stroke:none"
                   d="M 1.984375,-3.171875 C 1.984375,-3.3125 1.96875,-3.3125 1.796875,-3.3125 1.453125,-3 0.890625,-3 0.796875,-3 H 0.71875 v 0.21875 h 0.078125 c 0.109375,0 0.4375,-0.015625 0.734375,-0.140625 v 2.5 c 0,0.140625 0,0.203125 -0.53125,0.203125 H 0.75 V 0 c 0.265625,-0.015625 0.71875,-0.015625 1,-0.015625 0.296875,0 0.734375,0 1.015625,0.015625 v -0.21875 h -0.25 c -0.53125,0 -0.53125,-0.0625 -0.53125,-0.203125 z m 0,0"
                   id="path34489" />
              </g>
            </g>
          </g>
          <g
             style="fill:#000000;fill-opacity:1"
             id="g34497">
            <g
               id="use54"
               transform="translate(17.487,5.9770002)">
              <path
                 style="stroke:none"
                 d="M 2.296875,-1.84375 C 2.34375,-1.9375 2.34375,-1.953125 2.34375,-1.984375 c 0,-0.046875 0,-0.0625 -0.046875,-0.15625 L 0.859375,-5.78125 C 0.8125,-5.90625 0.75,-5.96875 0.65625,-5.96875 c -0.109375,0 -0.1875,0.078125 -0.1875,0.171875 0,0.03125 0,0.046875 0.046875,0.15625 L 1.96875,-1.984375 0.515625,1.65625 C 0.46875,1.765625 0.46875,1.78125 0.46875,1.8125 c 0,0.09375 0.078125,0.171875 0.1875,0.171875 0.109375,0 0.15625,-0.078125 0.1875,-0.171875 z m 0,0"
                 id="path79" />
            </g>
          </g>
        </g>
      </g>
      <g
         inkscape:label=""
         transform="translate(0.55930056,-23.09894)"
         id="g35789">
        <g
           id="g35787"
           transform="matrix(0.352778,0,0,0.352778,-0.347266,-0.0029105)">
          <g
             style="fill:#000000;fill-opacity:1"
             id="g35759">
            <g
               id="g35757"
               transform="translate(0,5.9770002)">
              <path
                 style="stroke:none"
                 d="m 1.359375,-5.671875 c 0,-0.125 0,-0.296875 -0.1875,-0.296875 -0.1875,0 -0.1875,0.171875 -0.1875,0.296875 V 1.6875 c 0,0.125 0,0.296875 0.1875,0.296875 0.1875,0 0.1875,-0.171875 0.1875,-0.296875 z m 0,0"
                 id="path35755" />
            </g>
          </g>
          <g
             style="fill:#000000;fill-opacity:1"
             id="g35765">
            <g
               id="g35763"
               transform="translate(2.352,5.9770002)">
              <path
                 style="stroke:none"
                 d="M 3.359375,-1.078125 C 4.84375,-1.21875 5.640625,-2 5.640625,-2.71875 c 0,-0.75 -0.828125,-1.515625 -2.28125,-1.640625 v -0.4375 c 0,-0.265625 0,-0.375 0.75,-0.375 h 0.25 V -5.4375 c -0.34375,0.015625 -0.953125,0.015625 -1.328125,0.015625 -0.390625,0 -0.984375,0 -1.34375,-0.015625 v 0.265625 h 0.25 c 0.75,0 0.75,0.109375 0.75,0.375 v 0.453125 c -1.328125,0.109375 -2.21875,0.84375 -2.21875,1.625 0,0.8125 0.921875,1.5 2.21875,1.625 v 0.4375 c 0,0.28125 0,0.390625 -0.75,0.390625 h -0.25 V 0 c 0.359375,-0.03125 0.953125,-0.03125 1.328125,-0.03125 0.390625,0 1,0 1.34375,0.03125 v -0.265625 h -0.25 c -0.75,0 -0.75,-0.109375 -0.75,-0.390625 z M 2.6875,-1.3125 C 1.984375,-1.390625 1.28125,-1.71875 1.28125,-2.71875 c 0,-0.890625 0.5625,-1.3125 1.40625,-1.40625 z M 3.359375,-4.125 c 0.703125,0.046875 1.46875,0.375 1.46875,1.40625 0,1.015625 -0.734375,1.34375 -1.46875,1.40625 z m 0,0"
                 id="path35761" />
            </g>
          </g>
          <g
             style="fill:#000000;fill-opacity:1"
             id="g35771">
            <g
               id="g35769"
               transform="translate(8.4680004,7.3169999)">
              <path
                 style="stroke:none"
                 d="m 2.171875,-1.921875 h 0.6875 c 0.484375,0 0.5625,0.078125 0.5625,0.28125 0,0.078125 -0.03125,0.265625 -0.0625,0.34375 0,0 0.015625,0.078125 0.125,0.078125 0.078125,0 0.09375,-0.03125 0.109375,-0.125 l 0.359375,-1.421875 c 0,-0.015625 -0.015625,-0.09375 -0.109375,-0.09375 -0.09375,0 -0.109375,0.046875 -0.125,0.125 -0.125,0.46875 -0.265625,0.578125 -0.828125,0.578125 H 2.25 L 2.609375,-3.625 c 0.046875,-0.1875 0.046875,-0.203125 0.3125,-0.203125 h 0.96875 c 0.796875,0 1,0.15625 1,0.703125 0,0.140625 -0.015625,0.34375 -0.015625,0.359375 0,0.109375 0.078125,0.109375 0.109375,0.109375 0.09375,0 0.109375,-0.046875 0.109375,-0.15625 L 5.203125,-3.875 C 5.21875,-4.0625 5.171875,-4.0625 5.03125,-4.0625 h -3.375 c -0.109375,0 -0.203125,0 -0.203125,0.15625 0,0.078125 0.09375,0.078125 0.203125,0.078125 0.109375,0 0.265625,0 0.390625,0.046875 0,0.0625 0,0.09375 -0.03125,0.1875 L 1.234375,-0.5 c -0.046875,0.21875 -0.0625,0.265625 -0.515625,0.265625 -0.125,0 -0.140625,0 -0.15625,0.015625 C 0.53125,-0.203125 0.5,-0.125 0.5,-0.078125 0.515625,-0.0625 0.515625,0 0.609375,0 c 0.125,0 0.265625,-0.015625 0.40625,-0.015625 0.140625,0 0.28125,-0.015625 0.421875,-0.015625 0.15625,0 0.328125,0.015625 0.5,0.015625 C 2.078125,-0.015625 2.25,0 2.390625,0 2.421875,0 2.53125,0 2.53125,-0.15625 c 0,-0.078125 -0.078125,-0.078125 -0.21875,-0.078125 -0.015625,0 -0.171875,0 -0.3125,-0.015625 -0.1875,-0.015625 -0.203125,-0.03125 -0.203125,-0.09375 0,-0.015625 0,-0.046875 0.015625,-0.125 z m 0,0"
                 id="path35767" />
            </g>
          </g>
          <g
             clip-path="url(#clipPath703)"
             clip-rule="nonzero"
             id="g35779">
            <g
               style="fill:#000000;fill-opacity:1"
               id="g35777">
              <g
                 id="g35775"
                 transform="translate(13.101,8.4680004)">
                <path
                   style="stroke:none"
                   d="M 2.9375,-0.96875 H 2.71875 c 0,0.09375 -0.0625,0.40625 -0.140625,0.453125 -0.03125,0.03125 -0.453125,0.03125 -0.53125,0.03125 H 1.078125 C 1.40625,-0.71875 1.765625,-1 2.0625,-1.203125 c 0.453125,-0.3125 0.875,-0.59375 0.875,-1.125 0,-0.640625 -0.609375,-0.984375 -1.3125,-0.984375 -0.671875,0 -1.171875,0.375 -1.171875,0.875 0,0.25 0.21875,0.296875 0.296875,0.296875 0.125,0 0.28125,-0.09375 0.28125,-0.296875 0,-0.171875 -0.125,-0.28125 -0.28125,-0.28125 0.140625,-0.234375 0.4375,-0.375 0.765625,-0.375 0.484375,0 0.890625,0.28125 0.890625,0.765625 0,0.421875 -0.296875,0.75 -0.671875,1.0625 l -1.21875,1.03125 C 0.46875,-0.1875 0.453125,-0.1875 0.453125,-0.15625 V 0 h 2.3125 z m 0,0"
                   id="path35773" />
              </g>
            </g>
          </g>
          <g
             style="fill:#000000;fill-opacity:1"
             id="g35785">
            <g
               id="g35783"
               transform="translate(17.487,5.9770002)">
              <path
                 style="stroke:none"
                 d="M 2.296875,-1.84375 C 2.34375,-1.9375 2.34375,-1.953125 2.34375,-1.984375 c 0,-0.046875 0,-0.0625 -0.046875,-0.15625 L 0.859375,-5.78125 C 0.8125,-5.90625 0.75,-5.96875 0.65625,-5.96875 c -0.109375,0 -0.1875,0.078125 -0.1875,0.171875 0,0.03125 0,0.046875 0.046875,0.15625 L 1.96875,-1.984375 0.515625,1.65625 C 0.46875,1.765625 0.46875,1.78125 0.46875,1.8125 c 0,0.09375 0.078125,0.171875 0.1875,0.171875 0.109375,0 0.15625,-0.078125 0.1875,-0.171875 z m 0,0"
                 id="path35781" />
            </g>
          </g>
        </g>
      </g>
      <text
         xml:space="preserve"
         style="font-size:3.175px;fill:#000000;stroke:#ff00ff;stroke-width:0.350999;stroke-dasharray:none;stroke-opacity:1"
         x="-27.897034"
         y="-0.5567655"
         id="text37828"><tspan
           sodipodi:role="line"
           id="tspan37826"
           style="stroke-width:0.351"
           x="-27.897034"
           y="-0.5567655"></tspan></text>
      <text
         xml:space="preserve"
         style="font-style:normal;font-variant:normal;font-weight:normal;font-stretch:normal;font-size:3.175px;font-family:'Noto Color Emoji';-inkscape-font-specification:'Noto Color Emoji';fill:#000000;stroke:#000000;stroke-width:0.051;stroke-dasharray:none;stroke-opacity:1"
         x="-30.54287"
         y="3.1474013"
         id="text38762"><tspan
           sodipodi:role="line"
           id="tspan38760"
           style="font-style:normal;font-variant:normal;font-weight:normal;font-stretch:normal;font-family:'Latin Modern Math';-inkscape-font-specification:'Latin Modern Math';stroke-width:0.051;stroke-dasharray:none"
           x="-30.54287"
           y="3.1474013">0.000 eV</tspan></text>
      <text
         xml:space="preserve"
         style="font-style:normal;font-variant:normal;font-weight:normal;font-stretch:normal;font-size:3.175px;font-family:'Noto Color Emoji';-inkscape-font-specification:'Noto Color Emoji';fill:#000000;stroke:#000000;stroke-width:0.051;stroke-dasharray:none;stroke-opacity:1"
         x="-30.542866"
         y="-4.7900987"
         id="text38762-9"><tspan
           sodipodi:role="line"
           id="tspan38760-6"
           style="font-style:normal;font-variant:normal;font-weight:normal;font-stretch:normal;font-family:'Latin Modern Math';-inkscape-font-specification:'Latin Modern Math';stroke-width:0.051;stroke-dasharray:none"
           x="-30.542866"
           y="-4.7900987">0.177 eV</tspan></text>
      <text
         xml:space="preserve"
         style="font-style:normal;font-variant:normal;font-weight:normal;font-stretch:normal;font-size:3.175px;font-family:'Noto Color Emoji';-inkscape-font-specification:'Noto Color Emoji';fill:#000000;stroke:#000000;stroke-width:0.051;stroke-dasharray:none;stroke-opacity:1"
         x="-32.130367"
         y="-15.373426"
         id="text38762-9-4"><tspan
           sodipodi:role="line"
           id="tspan38760-6-3"
           style="font-style:normal;font-variant:normal;font-weight:normal;font-stretch:normal;font-family:'Latin Modern Math';-inkscape-font-specification:'Latin Modern Math';stroke-width:0.051;stroke-dasharray:none"
           x="-32.130367"
           y="-15.373426">21.624 eV</tspan></text>
      <text
         xml:space="preserve"
         style="font-style:normal;font-variant:normal;font-weight:normal;font-stretch:normal;font-size:3.175px;font-family:'Noto Color Emoji';-inkscape-font-specification:'Noto Color Emoji';fill:#000000;stroke:#000000;stroke-width:0.051;stroke-dasharray:none;stroke-opacity:1"
         x="-32.129597"
         y="-20.654915"
         id="text38762-9-4-3"><tspan
           sodipodi:role="line"
           id="tspan38760-6-3-3"
           style="font-style:normal;font-variant:normal;font-weight:normal;font-stretch:normal;font-family:'Latin Modern Math';-inkscape-font-specification:'Latin Modern Math';stroke-width:0.051;stroke-dasharray:none"
           x="-32.129597"
           y="-20.654915">21.675 eV</tspan></text>
    </g>
  </g>
</svg>
